<svg xmlns="http://www.w3.org/2000/svg" version="1.1" xmlns:xlink="http://www.w3.org/1999/xlink" xmlns:svgjs="http://svgjs.dev/svgjs" viewBox="0 0 1422 800"><g shape-rendering="crispEdges" stroke-linejoin="round" fill="none" stroke-width="2" stroke="#32587f"><polygon points="1422,0 1066.5,0 1066.5,200"></polygon><polygon points="1066.5,0 1066.5,100 888.75,100"></polygon><polygon points="711,100 888.75,0 888.75,100"></polygon><polygon points="888.75,100 711,200 711,100"></polygon><polygon points="1066.5,200 888.75,100 1066.5,100"></polygon><polygon points="1066.5,200 888.75,300 888.75,200"></polygon><polygon points="711,200 888.75,300 888.75,200"></polygon><polygon points="888.75,350 799.875,350 888.75,300"></polygon><polygon points="711,300 799.875,350 799.875,300"></polygon><polygon points="799.875,400 799.875,350 711,400"></polygon><polygon points="888.75,350 888.75,400 799.875,350"></polygon><polygon points="1066.5,350 1066.5,300 977.625,350"></polygon><polygon points="977.625,350 888.75,350 977.625,300"></polygon><polygon points="888.75,400 977.625,350 888.75,350"></polygon><polygon points="1066.5,400 977.625,400 977.625,350"></polygon><polygon points="1422,300 1244.25,300 1422,200"></polygon><polygon points="1244.25,200 1066.5,300 1066.5,200"></polygon><polygon points="1244.25,300 1244.25,400 1066.5,400"></polygon><polygon points="1422,400 1244.25,300 1244.25,400"></polygon><polygon points="711,100 711,0 533.25,100"></polygon><polygon points="355.5,0 533.25,100 533.25,0"></polygon><polygon points="533.25,100 533.25,200 355.5,200"></polygon><polygon points="711,200 533.25,200 711,100"></polygon><polygon points="355.5,0 0,200 355.5,200"></polygon><polygon points="177.75,200 355.5,300 355.5,200"></polygon><polygon points="177.75,200 0,200 177.75,300"></polygon><polygon points="177.75,400 0,300 177.75,300"></polygon><polygon points="355.5,400 355.5,300 177.75,300"></polygon><polygon points="711,200 711,300 533.25,300"></polygon><polygon points="533.25,300 533.25,200 355.5,300"></polygon><polygon points="355.5,300 533.25,300 533.25,400"></polygon><polygon points="533.25,400 533.25,300 711,400"></polygon><polygon points="711,450 711,400 622.125,450"></polygon><polygon points="622.125,450 622.125,400 533.25,400"></polygon><polygon points="622.125,450 533.25,450 622.125,500"></polygon><polygon points="711,450 711,500 622.125,450"></polygon><polygon points="533.25,400 444.375,400 533.25,450"></polygon><polygon points="444.375,450 355.5,450 444.375,400"></polygon><polygon points="444.375,500 444.375,450 355.5,500"></polygon><polygon points="444.375,500 533.25,500 444.375,450"></polygon><polygon points="533.25,500 533.25,600 355.5,600"></polygon><polygon points="533.25,500 533.25,600 711,600"></polygon><polygon points="355.5,400 177.75,400 177.75,500"></polygon><polygon points="0,500 177.75,500 0,400"></polygon><polygon points="177.75,500 177.75,600 0,600"></polygon><polygon points="266.625,550 266.625,500 355.5,550"></polygon><polygon points="266.625,500 177.75,500 177.75,550"></polygon><polygon points="177.75,600 266.625,550 266.625,600"></polygon><polygon points="355.5,550 355.5,600 266.625,600"></polygon><polygon points="0,800 355.5,800 0,600"></polygon><polygon points="711,700 533.25,700 533.25,600"></polygon><polygon points="533.25,600 355.5,600 355.5,700"></polygon><polygon points="355.5,700 355.5,800 533.25,800"></polygon><polygon points="711,800 711,700 533.25,700"></polygon><polygon points="1422,500 1422,400 1244.25,400"></polygon><polygon points="1244.25,400 1066.5,400 1244.25,500"></polygon><polygon points="1244.25,600 1244.25,500 1066.5,600"></polygon><polygon points="1422,600 1244.25,500 1244.25,600"></polygon><polygon points="888.75,500 1066.5,400 1066.5,500"></polygon><polygon points="888.75,400 888.75,450 799.875,400"></polygon><polygon points="799.875,400 799.875,450 711,450"></polygon><polygon points="711,450 799.875,450 799.875,500"></polygon><polygon points="888.75,500 888.75,450 799.875,500"></polygon><polygon points="711,500 888.75,600 888.75,500"></polygon><polygon points="1066.5,600 1066.5,500 888.75,500"></polygon><polygon points="1066.5,700 1066.5,600 888.75,600"></polygon><polygon points="711,600 888.75,700 888.75,600"></polygon><polygon points="888.75,800 888.75,700 711,700"></polygon><polygon points="1066.5,800 888.75,700 888.75,800"></polygon><polygon points="1422,700 1244.25,700 1244.25,600"></polygon><polygon points="1244.25,600 1244.25,700 1066.5,600"></polygon><polygon points="1066.5,800 1244.25,700 1244.25,800"></polygon><polygon points="1422,700 1422,800 1244.25,800"></polygon></g><g fill="hsl(220, 62%, 45%)" stroke-width="3" stroke="hsl(220, 43%, 13%)"></g></svg>